<?xml version="1.0" encoding="UTF-8"?><svg id="Layer_1" xmlns="http://www.w3.org/2000/svg" xmlns:xlink="http://www.w3.org/1999/xlink" viewBox="0 0 493.22 493.69"><defs><style>.cls-1{fill:url(#linear-gradient);}.cls-2{fill:#020202;}.cls-3,.cls-4{fill:#fff;}.cls-5{fill:#231f20;}.cls-6{fill:url(#radial-gradient);}.cls-7{fill:#0bf1f7;}.cls-7,.cls-8,.cls-9,.cls-4,.cls-10,.cls-11,.cls-12{fill-rule:evenodd;}.cls-8{fill:#e2ccb0;}.cls-9{fill:#ff7415;}.cls-10{fill:#ea39d9;}.cls-11{fill:#0081e2;}</style><radialGradient id="radial-gradient" cx="246.61" cy="246.85" fx="292.91" fy="206.59" r="242.4" gradientUnits="userSpaceOnUse"><stop offset=".37" stop-color="#44aedb"/><stop offset="1" stop-color="#149ac9"/></radialGradient><linearGradient id="linear-gradient" x1="106.15" y1="324.9" x2="382.7" y2="324.9" gradientUnits="userSpaceOnUse"><stop offset=".03" stop-color="#ff9100"/><stop offset="1" stop-color="#ff0"/></linearGradient></defs><g><circle class="cls-6" cx="246.61" cy="246.85" r="242.4"/><g><g><path d="m285.06,259.63c-2.36,0-4.46-1.67-4.91-4.08-1.71-9.12-2.74-18.26-3.06-27.17-.1-2.76,2.06-5.08,4.82-5.17,2.73-.1,5.08,2.06,5.17,4.82.3,8.41,1.27,17.04,2.89,25.67.51,2.71-1.28,5.33-3.99,5.84-.31.06-.62.09-.93.09Z"/><g><path d="m263.89,252.25c-.57,0-1.13-.1-1.68-.29l-135.48-48.27c-1.37-.49-2.46-1.55-2.99-2.91-.52-1.36-.43-2.88.26-4.17,40.21-74.7,107.66-121.48,212.29-147.2,2.14-.53,4.37.41,5.49,2.3,1.12,1.89.88,4.3-.61,5.93-55.03,60.16-63.82,126.3-72.33,190.27-.2,1.5-1.06,2.82-2.35,3.61-.79.48-1.7.73-2.61.73Zm-128.26-56l124.12,44.22c7.93-59.31,17.32-120.26,63.49-177.32-90.58,25.06-150.59,67.67-187.61,133.1Z"/><path d="m399.61,97.75c-1.29,0-2.79-.01-4.48-.03-5.34-.07-12.76-.24-22.04-.52-15.78-.47-31.74-1.08-31.89-1.09-1.58-.06-3.03-.86-3.93-2.16-.89-1.3-1.12-2.94-.62-4.44l10.31-30.53c.48-1.43,1.59-2.57,3.01-3.09,1.42-.52,3-.37,4.3.4,20.16,12.09,50.96,30.48,53.18,31.63,2.16,1.06,3.28,3.44,2.69,5.78-.98,3.89-4.63,3.97-7.57,4.03-.82.02-1.81.03-2.96.03Zm3.27-.94s.09.05.14.07c-.04-.02-.08-.04-.14-.07Zm-54.61-10.44c12.45.45,27.47.94,38.86,1.2-10.83-6.44-24.59-14.67-32.67-19.51l-6.18,18.31Z"/><path d="m389.06,299.25c-.58,0-1.18-.1-1.75-.32l-103.89-38.76c-2.59-.97-3.9-3.85-2.94-6.43.96-2.59,3.84-3.9,6.43-2.94l89.88,33.54c-31.02-53.08-34.73-117.31-37.41-180.1-3,3.23-5.91,6.49-8.69,9.77-30.72,36.24-44.96,73.82-43.51,114.89.1,2.76-2.06,5.08-4.82,5.17-2.77.1-5.08-2.06-5.17-4.82-1.53-43.67,13.47-83.48,45.88-121.71,5.34-6.3,11.13-12.56,17.2-18.59.14-.15.3-.29.46-.42,1.22-1,2.84-1.36,4.37-.98,1.75.44,3.13,1.78,3.61,3.52.11.41.17.82.18,1.23l.2,4.7c2.89,68.62,5.87,139.58,44.07,194.4,1.25,1.79,1.19,4.19-.15,5.92-.97,1.25-2.44,1.94-3.95,1.94Z"/><g><path class="cls-9" d="m263.91,247.25c8.77-65.98,17.74-131.95,73.56-192.97h0c-89.03,21.89-164.59,62.12-209.06,144.73,48.99,17.44,90.64,32.28,135.5,48.24"/><path d="m263.91,248.25c-.11,0-.23-.02-.33-.06-24.63-8.77-48.29-17.19-72.73-25.89l-62.76-22.35c-.28-.1-.49-.31-.6-.58-.1-.27-.08-.58.05-.83,39.65-73.65,106.28-119.8,209.7-145.23.29-.07.61,0,.86.18.24.19.38.48.38.79,0,.25-.09.49-.26.68-55.84,61.04-64.72,127.83-73.31,192.43-.04.3-.21.56-.47.72-.16.1-.34.15-.52.15Zm-134.06-49.79l61.67,21.96c24.06,8.57,47.36,16.86,71.57,25.48,8.47-63.66,17.5-129.41,71.45-189.86-100.54,25.32-165.67,70.65-204.69,142.42Z"/></g><path class="cls-4" d="m342.68,91s66.46,2.54,63.88,1.27c-2.58-1.27-53.55-31.74-53.55-31.74l-10.32,30.47h0Z"/><g><path class="cls-9" d="m285.21,255.5c32.61,12.17,56.18,20.96,103.88,38.72-39.91-57.28-42.11-129.74-45.17-201.85h0c-36.78,36.54-72.69,88.85-58.72,163.13"/><path d="m389.09,295.22c-.12,0-.24-.02-.35-.06-47.7-17.76-71.27-26.55-103.88-38.72-.33-.12-.57-.41-.63-.75-6.35-33.75-2.85-66.15,10.39-96.31,10.19-23.2,26.09-45.35,48.6-67.73.32-.31.8-.38,1.19-.17.33.18.52.52.52.88l.2,4.73c2.91,69.21,5.92,140.77,44.79,196.55.25.36.24.84-.03,1.18-.19.25-.49.39-.79.39Zm-103-40.46c31.66,11.82,54.92,20.49,100.4,37.42-37.51-55.86-40.48-126.57-43.36-195l-.11-2.51c-21.48,21.65-36.73,43.09-46.57,65.5-13.01,29.62-16.49,61.43-10.36,94.58Z"/></g></g></g><g><g><path class="cls-8" d="m172.56,243.53c3.98,8.32,7.65,6.19,11.88,4.41,4.02-1.69,4.63.54,5.94-4.18.86-3.11,1.89-6.18,2.37-9.38-5.21-1.6-11.26-1.54-16.28.71-2.59,1.16-7.88,5.48-3.92,8.44"/><path d="m179.12,251.06c-2.55,0-5.23-1.46-7.75-6.57-1.6-1.35-1.81-2.86-1.7-3.91.35-3.13,3.99-5.87,6.2-6.86,5.12-2.3,11.44-2.58,17.33-.77l1.24.38-.19,1.28c-.39,2.57-1.11,5.05-1.81,7.45-.2.7-.41,1.4-.6,2.11-.97,3.5-1.89,4.19-4.14,4.48-.7.09-1.5.19-2.67.68l-.66.28c-1.62.69-3.41,1.46-5.26,1.46Zm6.29-16.28c-2.96,0-5.84.56-8.31,1.67-1.7.76-4.28,2.88-4.45,4.45-.04.35.02.83.81,1.42l.29.22.16.33c3.15,6.58,5.33,5.65,9.28,3.96l.67-.29c1.54-.65,2.69-.8,3.45-.89.99-.13,1.03-.13,1.63-2.31.2-.71.41-1.43.61-2.14.57-1.97,1.12-3.84,1.49-5.75-1.86-.45-3.76-.68-5.64-.68Z"/></g><g><path class="cls-7" d="m215.04,168.63c-27.01-17.45,6.6-48.28,25.57-25.47l-25.57,25.47Z"/><path d="m215.24,170.54l-1.02-.66c-10.72-6.93-11.24-15.05-10.6-19.27,1.14-7.49,7.32-14.04,15.38-16.28,8.37-2.33,16.67.53,22.76,7.86l.88,1.05-27.4,27.29Zm9.4-33.99c-1.6,0-3.21.22-4.83.67-6.83,1.9-12.27,7.59-13.22,13.84-.88,5.76,2.05,11.27,8.26,15.63l23.7-23.61c-3.96-4.27-8.82-6.53-13.92-6.53Z"/></g><g><path class="cls-7" d="m308.5,162.87c24.9-15.86,44.98,23.37,16.5,31.72l-16.5-31.72Z"/><path d="m324.23,196.38l-17.7-34.04,1.16-.74c7.79-4.96,16.18-5.28,23.01-.86,6.71,4.34,10.63,12.62,9.54,20.13-.61,4.22-3.35,11.79-14.83,15.16l-1.18.35Zm-13.75-32.95l15.26,29.35c6.62-2.27,10.7-6.62,11.53-12.34.93-6.39-2.44-13.46-8.2-17.18-3.26-2.11-9.92-4.78-18.59.16Z"/></g><g><path class="cls-8" d="m272.2,350.11c4.53,4.31,12,16.05,3.2,19.13-8.94,5.29-10.12-10-16.29-13.38,3.64-3.26,7.98-6.01,13.09-5.76Z"/><path d="m271.94,371.84c-.53,0-1.04-.07-1.54-.21-3.26-.9-5.2-4.46-7.07-7.9-1.47-2.7-2.99-5.5-4.93-6.56l-1.86-1.02,1.58-1.41c3.11-2.78,7.95-6.45,14.16-6.14l.56.03.4.38c3.01,2.87,8.83,10.67,7.58,16.46-.36,1.68-1.48,3.92-4.78,5.12-1.43.82-2.8,1.24-4.09,1.24Zm-10.42-16.06c1.8,1.67,3.13,4.13,4.44,6.52,1.57,2.89,3.2,5.88,5.24,6.44.96.26,2.09,0,3.44-.79l.27-.12c1.7-.6,2.67-1.57,2.98-2.97.81-3.78-3.03-9.95-6.31-13.26h-.03c-3.25,0-6.47,1.35-10.01,4.2Z"/></g><g><path class="cls-8" d="m205.39,344.72c-6.23,1.02-9.7,6.68-14.88,9.58-4.88,2.96-7.94-1.33-9.13-2.51-4.6-7.14,4.64-12.46,9.44-16.06,6.72-1.42,10.99,4.39,14.58,9Z"/><path d="m187.23,356.84c-3.23,0-5.49-2.46-6.52-3.57-.15-.16-.28-.3-.39-.42l-.21-.25c-4.87-7.55,3.25-13.36,8.1-16.83.61-.43,1.18-.85,1.71-1.24l.27-.2.32-.07c7.45-1.57,12.04,4.36,15.75,9.13l1.88,2.41-2.5.41c-3.47.57-6.05,2.81-8.79,5.18-1.73,1.5-3.52,3.06-5.61,4.23-1.46.89-2.81,1.23-4.01,1.23Zm-4.67-6c.11.11.23.25.36.39,1.77,1.92,3.75,3.64,6.81,1.78,1.86-1.04,3.46-2.43,5.15-3.9,2.37-2.06,4.8-4.17,7.92-5.27-3.03-3.82-6.51-7.55-11.37-6.71-.46.34-.96.7-1.48,1.07-9.69,6.94-9.16,9.87-7.4,12.64Z"/></g><g><path class="cls-8" d="m309.59,290.02c-2.11,8.08-9.48,2.59-12.64-.74-3-3.16-4.45-1.36-3.75-6.21.46-3.19.76-6.41,1.6-9.53,5.41.63,10.91,3.11,14.59,7.18,1.9,2.1,5.01,8.17.2,9.29"/><path d="m305.4,295.72c-4.18,0-8.61-4.43-9.54-5.4-.87-.92-1.56-1.33-2.16-1.69-1.94-1.17-2.5-2.17-1.98-5.76.1-.72.2-1.45.29-2.17.33-2.47.66-5.03,1.34-7.53l.34-1.25,1.29.15c6.11.71,11.77,3.51,15.53,7.66,1.63,1.8,3.86,5.77,2.92,8.77-.29.92-.98,2.08-2.62,2.73-.8,2.39-2.16,3.85-4.05,4.34-.44.11-.89.17-1.34.17Zm-9.47-20.49c-.42,1.9-.68,3.83-.94,5.86-.1.73-.19,1.47-.3,2.2-.32,2.23-.29,2.25.56,2.76.65.39,1.64.99,2.79,2.2,2.44,2.57,5.96,4.91,7.96,4.39.96-.25,1.69-1.26,2.14-3l.23-.88.88-.21c.96-.22,1.21-.64,1.31-.97.47-1.51-1.03-4.48-2.28-5.86-2.97-3.28-7.51-5.65-12.35-6.5Z"/></g><g><path class="cls-7" d="m284.28,151.54c24.85,9.16,45.81,15.35,49.15,43.7,1.04,30.78-32.64,55.93-37.78,85.97-7.52,24.81-7.69,45.23-27.26,63.59-20.58,19.31-36.74,12.89-60.82,3.02-18.91-7.75-34.49-22.13-38.86-43.63-5.12-25.22,6.31-33.52,15.66-56.04,11.07-26.67,11.06-64.43,29.72-87.64,19.36-24.08,42.62-16.72,70.19-8.97"/><path d="m240.91,358.78c-10.52,0-21.29-4.41-33.9-9.58-21.58-8.84-35.7-24.73-39.76-44.72-3.82-18.83,1.41-28.65,8.03-41.09,2.43-4.55,5.18-9.72,7.71-15.82,4.18-10.07,6.72-21.57,9.42-33.75,4.31-19.49,8.77-39.64,20.52-54.26,19.47-24.22,42.7-17.67,69.6-10.08l2.27.65c1.28.47,2.54.93,3.79,1.39,23.1,8.44,43.05,15.73,46.33,43.54v.13c.59,17.32-9.55,32.96-19.37,48.08-7.94,12.24-16.15,24.9-18.43,38.19l-.04.18c-1.8,5.92-3.17,11.59-4.5,17.07-4.28,17.67-7.98,32.92-23.17,47.17-10.06,9.44-19.19,12.9-28.51,12.9Zm6.02-213.26c-11.66,0-22.09,3.99-31.68,15.92-11.31,14.07-15.69,33.87-19.92,53.02-2.72,12.31-5.29,23.94-9.58,34.25-2.59,6.24-5.38,11.47-7.83,16.08-6.59,12.37-11.35,21.3-7.74,39.08,3.85,18.98,17.33,34.08,37.96,42.54,23.6,9.67,39.19,16.06,59.22-2.73,14.54-13.64,18.14-28.49,22.3-45.69,1.33-5.5,2.71-11.18,4.52-17.15,2.4-13.86,10.76-26.75,18.85-39.22,9.55-14.72,19.42-29.93,18.9-46.29-3.08-25.93-21.31-32.59-44.37-41.01-1.24-.45-2.49-.91-3.75-1.37l-2.1-.59c-12.77-3.6-24.27-6.85-34.78-6.85Z"/></g><g><path class="cls-4" d="m266.63,183.3c-1.02,28.03,44.7,30.16,44.07,1.54-.56-25.66-40.35-26.94-44.07-1.54"/><path d="m289.6,206.76c-4.86,0-9.78-1.25-13.9-3.72-7.1-4.26-10.83-11.29-10.52-19.8v-.16c1.49-10.1,10.08-20.53,25.49-19.59,14.54.9,21.28,11.35,21.49,21.3.18,8.26-3.35,14.92-9.94,18.75-3.69,2.14-8.12,3.21-12.61,3.21Zm-21.52-23.33c-.24,7.36,2.99,13.44,9.12,17.12,7.06,4.24,16.75,4.44,23.55.49,3.99-2.31,8.7-7,8.5-16.17-.26-11.97-9.61-17.9-18.76-18.47-9.48-.59-20.53,4.49-22.4,17.03Z"/></g><g><path class="cls-4" d="m212.87,176.58c1.09,24.82,40.06,26.7,43.6,2.78,4.24-28.65-43.29-32.93-43.6-2.78"/><path d="m235.16,197.7c-.45,0-.9-.01-1.35-.03-10.34-.53-21.75-7.34-22.35-21.02v-.04s0-.04,0-.04c.09-8.9,4.15-15.84,11.44-19.52,8.24-4.16,19.25-3.28,26.77,2.14,6.53,4.71,9.43,11.94,8.19,20.38-1.86,12.61-12.81,18.13-22.7,18.13Zm-20.88-21.14c.4,8.63,6.63,17.62,19.67,18.29,12.9.65,19.89-7.4,21.12-15.69,1.08-7.34-1.42-13.61-7.05-17.67-6.7-4.83-16.51-5.62-23.85-1.91-6.29,3.18-9.8,9.21-9.9,16.99Z"/></g><g><path class="cls-4" d="m265.15,216.88c-.72,3.52-.77,7.63-2.22,11.24-1.25,1.51-3.05,1.32-4.72,1.69-2.03-.77-3.51-2.52-3.94-4.66.36-4.38,1.97-8.36,3-12.61l7.87,4.35Z"/><path d="m258.1,231.36l-.42-.16c-2.52-.96-4.34-3.11-4.88-5.77l-.04-.21.02-.21c.25-3.12,1.11-6.04,1.93-8.86.38-1.3.78-2.65,1.1-3.98l.46-1.91,10.56,5.83-.22,1.08c-.23,1.14-.39,2.34-.56,3.62-.35,2.61-.7,5.31-1.74,7.88l-.09.22-.15.18c-1.32,1.59-3.04,1.82-4.43,2.01-.37.05-.75.1-1.12.18l-.44.1Zm-2.31-6.32c.34,1.42,1.29,2.58,2.59,3.2.29-.05.58-.09.87-.13,1.14-.15,1.85-.28,2.38-.8.82-2.15,1.14-4.57,1.45-6.91.12-.9.24-1.83.39-2.73l-5.24-2.89c-.21.75-.43,1.5-.64,2.23-.8,2.73-1.55,5.3-1.8,8.04Z"/></g><g><ellipse cx="222.43" cy="178.57" rx="7.05" ry="6.51" transform="translate(1.98 359.58) rotate(-78.15)"/><ellipse class="cls-3" cx="225" cy="180.74" rx="1.79" ry="1.53" transform="translate(1.9 363.82) rotate(-78.15)"/></g><g><ellipse cx="278.5" cy="189.29" rx="7.05" ry="6.4" transform="translate(36.03 422.97) rotate(-78.15)"/><ellipse class="cls-3" cx="281.02" cy="191.45" rx="1.79" ry="1.51" transform="translate(35.93 427.15) rotate(-78.15)"/></g><g><path class="cls-4" d="m247.03,212.68c-4.19,6.15-2.69,20.52,6.93,12.17.36-4.38,1.97-8.36,3-12.61l-9.93.43Z"/><path d="m248.84,228.89c-1.44,0-2.46-.61-3.1-1.18-3.55-3.16-2.93-11.51.05-15.88l.42-.62,12.68-.55-.47,1.94c-.34,1.4-.75,2.78-1.14,4.11-.82,2.8-1.59,5.44-1.82,8.26l-.05.61-.46.4c-2.54,2.21-4.56,2.91-6.11,2.91Zm-.96-14.75c-2.15,3.79-2,9.68-.15,11.33,1.24,1.1,3.38-.23,4.79-1.38.31-2.89,1.11-5.6,1.88-8.23.2-.67.4-1.35.59-2.04l-7.11.31Z"/></g><g><g><path class="cls-8" d="m250.71,199.91c-5.27-.65-10.8,4.62-9.13,10.06,2.21,7.2,10.94,3.63,15.76,5.33,5.68,1.31,9.68,4.46,15.3.46,2.58-4.95.23-9.39-4.96-12.99l-16.97-2.86Z"/><path class="cls-5" d="m267.01,219.21c-2.22,0-4.3-.69-6.34-1.36-1.17-.39-2.39-.79-3.67-1.09l-.16-.05c-1.34-.47-3.18-.46-5.13-.45-4.33.03-9.74.05-11.56-5.85-.87-2.82-.19-5.83,1.85-8.27,2.25-2.69,5.66-4.11,8.89-3.72h.07s17.3,2.92,17.3,2.92l.28.19c6.26,4.34,8.19,9.63,5.43,14.91l-.17.32-.29.21c-2.34,1.66-4.48,2.23-6.5,2.23Zm-9.25-5.35c1.38.32,2.64.74,3.85,1.14,3.66,1.21,6.34,2.1,9.86-.26,1.74-3.69.27-7.24-4.37-10.55l-16.6-2.8c-2.2-.26-4.62.79-6.2,2.67-1.38,1.64-1.84,3.63-1.28,5.46,1.08,3.52,3.96,3.76,8.68,3.73,2.09-.01,4.25-.02,6.06.59Z"/></g><path class="cls-12" d="m247.87,199.1c1.64-9.88,20.56-7.18,21.04,1.47.48,8.64-21.64,5.97-21.04-1.47.48-5.95,0,0,0,0Z"/></g><polygon class="cls-3" points="242.72 124.05 242.19 126.59 244.33 140.47 244.9 143.69 245.46 145.14 251.56 147.91 270.33 150.2 283.2 152.35 293.64 156.74 294.97 156.4 307.94 141.25 307.29 139.94 299.5 137.44 290.74 126.51 277.81 119.88 269.63 118.48 261.25 119.54 253.35 122.11 249.08 123.02 242.72 124.05"/><path class="cls-2" d="m308.74,140.56c-.22-.76-.81-1.36-1.57-1.58-2.38-.71-4.52-1.44-6.47-2.17-4.82-6.93-10.32-12.06-16.36-15.24-4.91-2.59-10.18-3.91-15.65-3.91-8.49,0-14.72,3.12-15.96,3.79-4.02.08-7.12.55-9.16.99-1.53.33-2.56,1.79-2.36,3.36l.59,3.88.33,2.11.3,1.97.3,1.97,1.07,7,.23,1.5c.02.14.05.28.09.41.07.26.19.52.33.75.06.07.12.13.19.2.48.31.92.66,1.32,1.07.28.14.6.28.95.42.08.01.15.03.23.04.7.15,1.35.4,1.95.73,4.24,1.36,10.99,2.6,19.78,3.11,5.14.3,9.47,1.15,12.95,2.16,1.53.44,2.89.91,4.09,1.37,1.31.5,2.42,1,3.34,1.44v.02c.4.15.79.33,1.15.55.12.06.23.12.35.18,0,0,0,0,0,0,.78.41,1.29.72,1.47.83.13.08.27.15.4.21,0,0,0,.01,0,.02.34.02.68.06,1.01.13.01,0,.02,0,.03,0,.26-.04.53-.06.79-.07,0-.01,0-.02,0-.03.42-.14.81-.39,1.12-.74l3.29-3.71,1.4-1.58,3.98-4.48.9-1.01.49-.56.54-.61,2.07-2.33c.53-.6.71-1.41.49-2.17Zm-40.05-21.09c11.02,0,20.71,5.42,28.86,16.09-4.15-1.75-7.38-3.5-10.36-5.12-4.92-2.67-9.57-5.19-16.92-6.96-4.94-1.19-9.35-1.76-13.17-1.96,2.73-.99,6.8-2.06,11.59-2.05Zm38.2,22.06l-2.87,3.23-1.18,1.32-5.31,5.98-1.5,1.69-1.84,2.07c-.26.3-.7.36-1.03.15-.72-.45-1.57-.92-2.53-1.4-.89-.44-1.87-.88-2.95-1.31-1.94-.79-4.17-1.54-6.62-2.18-.97-.26-1.97-.49-3-.71-.36-.08-.73-.15-1.1-.22-2.52-.48-5.21-.83-8.02-1-6.44-.37-11.51-1.14-15.23-1.96-3.83-.84-6.25-1.74-7.31-2.33-.32-.18-.54-.5-.59-.89v-.02s-1.05-6.83-1.05-6.83l-.3-1.98-1.47-9.6c-.08-.63.32-1.2.95-1.34,4.27-.91,13.32-1.99,25.89,1.04,7.12,1.71,11.45,4.07,16.47,6.79,5.03,2.73,10.74,5.82,20.34,8.68.24.07.32.27.34.35.03.1.05.29-.11.47Z"/><path d="m275.38,142.41c-.16-.07-.3-.14-.46-.21.89-.48,1.66-1.07,2.23-1.89-.03,1.29-.86,3.2-2.9,3.95-.53.26-2.95.61-3.17.7-.06-.07-2.07-1.52-2.37-1.91-.97-.88-2.15-2.73-1.05-4.89,0,0,.01-.02.03-.04.14,1,.57,1.87,1.17,2.69-.1,0-.18,0-.26,0-.08,0-.16,0-.27,0,.12.16.22.3.34.44.49.55,1.1.91,1.82,1.1.04.01.08.02.12.02.17.02.3-.06.36-.24.03-.08.05-.16.07-.25.35-1.5.69-3.01,1.03-4.52.02-.09.03-.17.04-.26.02-.21-.07-.34-.28-.4-.31-.09-.62-.17-.93-.26-.17-.05-.33-.09-.5-.14-.05-.01-.07,0-.11.03-.31.35-.77.43-1.18.21-.42-.22-.64-.7-.52-1.12.11-.38.54-.68.97-.67.44,0,.8.27.92.68.01.04.02.08.08.09.52.09,1.04.19,1.57.28.04,0,.09.01.13.01.18,0,.31-.06.36-.23.06-.2.11-.4.15-.61,0-.02-.03-.06-.06-.08-.46-.32-.73-.74-.79-1.28-.13-1.1.85-2.02,1.98-1.88,1.12.14,1.86,1.2,1.53,2.24-.21.69-.71,1.08-1.45,1.2-.07.01-.1.04-.11.1-.03.17-.08.34-.1.51-.03.25.06.38.32.46.32.09.63.18.95.26.2.06.4.11.6.17.05.01.08,0,.11-.03.31-.34.78-.42,1.18-.2.42.23.64.71.51,1.13-.12.38-.55.67-.99.65-.4-.02-.78-.23-.9-.68-.02-.06-.05-.09-.11-.1-.48-.09-.95-.18-1.43-.26-.24-.04-.37.03-.45.25-.03.08-.05.15-.07.23-.35,1.5-.69,3.01-1.04,4.52-.02.08-.03.16-.04.24-.02.23.07.36.31.41.53.11,1.06.11,1.59,0,.34-.08.66-.2.95-.38.03-.02.05-.03.09-.06Zm-1.46-9.71c-.44-.11-.88.15-.99.58-.11.42.17.86.62.97.44.11.89-.16.99-.58.1-.42-.17-.85-.62-.96Z"/></g><g><g><path d="m172.49,423.63c-4.95,0-10.02,0-15.24-.03h-3.56c-27.9-.03-62.62-.06-79.45-45.4-.29-.78-.56-1.52-.82-2.31-.05-.17-.1-.34-.13-.52-.21-.66-.4-1.33-.58-2l-.04-.12c-.06-.2-.12-.39-.17-.59-.19-.76-.35-1.54-.51-2.32l-.1-.51c-.1-.51-.17-1.02-.24-1.53l-.07-.5c-.08-.52-.15-1.01-.21-1.54-.36-3.19-.4-6.12-.1-8.96.05-.46.11-.94.17-1.41.01-.15.03-.3.05-.45.11-.74.29-1.48.44-2.14l.08-.36c.16-.69.35-1.38.55-2.05.04-.13.08-.25.13-.38v-.04c.24-.72.49-1.53.81-2.35.08-.28.17-.52.27-.77.46-1.06.97-2,1.43-2.83l.18-.33c.33-.59.69-1.26,1.16-1.95.19-.28.37-.51.52-.68.04-.06.09-.13.13-.2.59-.83,1.33-1.82,2.19-2.79.84-.94,1.56-1.68,2.29-2.35.25-.23.47-.4.64-.51.8-.71,1.64-1.44,2.58-2.13.13-.1.27-.19.42-.29.86-.62,1.81-1.24,2.88-1.87.17-.13.36-.25.55-.36,1.15-.67,2.48-1.36,3.89-2.01,1.57-.73,3.06-1.39,4.56-2.01.23-.1.48-.18.74-.25l.21-.09c1.22-.5,2.61-1.06,3.99-1.56.2-.07.42-.14.65-.21l.22-.07c.56-.2,1.15-.39,1.73-.57.3-.09.59-.19.88-.29.88-.29,1.79-.57,2.71-.86.28-.08.55-.18.82-.27.49-.17.99-.34,1.5-.49,1.21-.35,2.47-.68,3.82-1.01-12.28-20.47-16.04-43.99-11.49-71.63.26-1.99,1.72-3.69,3.75-4.2.47-.12.95-.16,1.42-.15,69.59,2.38,107.27,22.82,147.16,44.46,4.04,2.19,8.1,4.39,12.22,6.59,29.73,15.85,63.17,31.98,115.94,39.87,2.45.37,4.26,2.47,4.26,4.95,0,16.56-3.94,31.18-11.39,42.29-4.57,6.81-10.31,12.13-16.96,15.79,10.4,1.58,21.79,2.49,36.66,3.11,2.44.1,4.45,1.96,4.75,4.38.3,2.43-1.2,4.71-3.55,5.41-3.75,1.11-6.41,2.38-9.23,3.72-7.63,3.64-14.86,7.08-38.91,6.72-33.59-.5-61.78-.14-94.41.29-23.84.31-50.44.65-82.18.65Zm-89.42-50.42c.17.51.36,1,.54,1.5,14.41,38.85,41.45,38.87,70.08,38.89h3.59c38.53.15,69.73-.26,97.25-.62,32.71-.42,60.96-.79,94.69-.29,11.3.17,18.31-.51,23.41-1.66-16.93-1.54-31.27-4.32-50.46-10.43-2.5-.8-3.96-3.4-3.34-5.95.62-2.55,3.12-4.18,5.71-3.74l19.81,3.41c19.55-4.07,32.03-22.52,33.25-48.79-51.84-8.34-85.13-24.44-114.81-40.26-4.14-2.21-8.22-4.42-12.28-6.62-37.97-20.6-73.88-40.08-138.32-43.07-3.45,25.9,1.3,47.62,14.48,66.26.98,1.38,1.19,3.17.56,4.74-.63,1.57-2.01,2.72-3.68,3.05-4.22.83-7.36,1.56-10.18,2.37-.34.1-.67.21-.99.33-.38.13-.76.26-1.15.38-.84.26-1.68.52-2.49.79-.33.11-.66.21-.99.32-.48.15-.96.31-1.42.47-.18.06-.38.13-.58.19l-.21.07c-1.21.44-2.45.94-3.64,1.43l-.37.15c-.22.09-.46.17-.69.24-1.31.54-2.62,1.12-4.01,1.77-.99.46-1.92.93-2.76,1.41-.15.11-.3.21-.45.3-.99.58-1.83,1.12-2.56,1.65-.11.08-.23.16-.35.24-.62.46-1.23.99-1.94,1.63-.19.17-.38.32-.53.42-.42.4-.87.87-1.41,1.47-.46.52-.91,1.12-1.31,1.67-.08.13-.17.28-.27.43-.2.28-.39.51-.53.66-.18.3-.37.64-.57,1l-.19.35c-.34.62-.67,1.21-.92,1.77-.07.23-.14.43-.22.63-.19.46-.37,1.04-.56,1.67l-.04.11c-.03.11-.07.2-.1.3-.14.46-.26.92-.37,1.37l-.09.38c-.1.44-.2.85-.27,1.22,0,.12-.02.24-.04.35-.05.35-.11.77-.15,1.18-.22,2.11-.19,4.33.09,6.78.05.4.1.79.16,1.2l.08.6c.05.34.09.68.16,1.02l.08.4c.13.64.26,1.26.41,1.88l.03.11c.05.16.09.32.14.47.18.65.38,1.31.58,1.96.05.15.09.3.12.46Zm-9.52-25.22s0,.02-.01.03c0-.01,0-.02.01-.03Zm8.58-12.12s-.04.04-.07.06c.02-.02.04-.04.07-.06Z"/><g><g><path class="cls-1" d="m107.95,250.39c128.22,4.36,146.7,71.74,274.75,90.89,0,32.08-15.38,53.9-38.31,58.14l-161.53-27.93c-40.84-21.08-86.38-51.8-74.91-121.1h0Z"/><path d="m344.39,400.42c-.06,0-.11,0-.17-.01l-161.53-27.93c-.1-.02-.2-.05-.29-.1-19.67-10.16-41.88-23.18-57.4-42.73-17.34-21.86-23.25-47.79-18.06-79.3.02-.36.22-.69.55-.85h0c.18-.09.38-.13.57-.1,68.42,2.35,105.57,22.52,144.89,43.87,34.49,18.73,70.16,38.1,129.88,47.03.49.07.85.49.85.99,0,32-14.99,54.66-39.13,59.12-.06.01-.12.02-.18.02Zm-161.2-29.89l161.2,27.87c22.81-4.32,37.05-25.82,37.31-56.26-59.55-9.04-95.2-28.4-129.68-47.12-38.96-21.16-75.76-41.14-143.22-43.6-4.88,30.57.94,55.76,17.78,76.98,15.25,19.21,37.16,32.08,56.61,42.13Z"/></g><g><path class="cls-11" d="m395.76,407.42c-42.09-1.76-57.22-5.27-107.37-24.04-31.86-11.92-42.55-34.34-81.85-49.8-49.73-19.57-89.64-10.28-111.78,0-21,9.75-21.09,28.79-15.84,42.93,16.28,43.87,49.1,41.97,78.33,42.08,82.54.29,128.67-1.81,191.87-.86,32.2.48,32.32-6.07,46.65-10.3h0Z"/><path d="m172.85,419.61c-5.07,0-10.26,0-15.61-.03-1.22,0-2.45,0-3.69,0-28-.02-59.74-.04-75.58-42.72-2.72-7.32-9.57-32.15,16.36-44.19,19.29-8.96,59.57-20.88,112.56-.02,20.58,8.1,33.18,17.94,45.36,27.46,10.97,8.57,21.33,16.67,36.47,22.33,50.43,18.88,65.44,22.24,107.05,23.98.49.01.9.37.97.86.07.49-.23.96-.71,1.1-4.07,1.2-7,2.61-9.84,3.97-7.19,3.45-13.98,6.7-37.1,6.37-33.74-.5-62.02-.15-94.78.26-23.66.3-50.04.63-81.48.63Zm-24.11-96.55c-23.95,0-42.35,6.22-53.56,11.42-7.9,3.67-25.2,15.07-15.33,41.68,15.35,41.38,45.02,41.4,73.7,41.42,1.24,0,2.47,0,3.69,0,38.45.13,69.58-.25,97.05-.6,32.76-.41,61.06-.76,94.83-.26,22.67.34,29.23-2.82,36.21-6.17,1.64-.79,3.31-1.59,5.21-2.36-38.06-1.83-53.96-5.7-102.51-23.87-15.43-5.77-25.91-13.96-37-22.63-12.07-9.43-24.56-19.19-44.87-27.18-21.45-8.44-40.78-11.45-57.43-11.45Z"/></g></g></g><g><path class="cls-4" d="m147.57,322.16c-22.28.2-40.36,5.66-52.81,11.44-19.96,9.27-21.01,26.89-16.56,40.76,5.69,13.02,22.67,11.79,29.12-8.77,9.58,16.7,31.16,20.28,47.51,2.63,15.65,17.79,40.5,17.57,47.44-6.26,22.24,21.86,32.23,11.99,38.29,3.61,1.2-4.62,3.7-8.81-5.03-16.68-7.98-5.42-17.25-10.65-29.04-15.29-21.76-8.56-41.59-11.6-58.93-11.44h0Z"/><path d="m89.87,383.85c-5.41,0-10.08-3.35-12.58-9.09l-.04-.09c-8.58-26.74,9.09-38.26,17.09-41.98,11.08-5.15,29.31-11.33,53.22-11.54h0c19.52-.19,39.45,3.7,59.3,11.51,10.65,4.19,19.94,9.08,29.23,15.39l.11.08c8.29,7.48,6.93,12.15,5.72,16.28-.14.46-.27.93-.39,1.4l-.05.18-.11.15c-3.35,4.63-7.69,9.45-14.43,10.01-6.94.59-14.85-3.47-24.2-12.36-3.18,9.4-9.46,15.56-17.8,17.42-10.03,2.23-21.48-2.18-30.12-11.53-7.95,8.19-17.49,12.11-26.99,11.02-8.15-.93-15.43-5.56-20.24-12.81-2.91,7.74-8.67,15.47-17,15.92-.24.01-.48.02-.71.02Zm-10.73-9.84c2.27,5.16,6.5,8.1,11.34,7.83,8.03-.43,13.48-8.83,15.9-16.54l.68-2.18,1.14,1.98c4.44,7.74,11.67,12.71,19.85,13.64,9.15,1.04,18.41-2.93,26.05-11.19l.75-.81.73.83c8.23,9.36,19.32,13.85,28.92,11.71,8.06-1.79,14.03-8.04,16.81-17.59l.47-1.61,1.19,1.17c9.28,9.12,17.3,13.49,23.8,12.93,5.87-.49,9.8-4.82,12.87-9.04.11-.43.24-.85.36-1.27,1.14-3.9,2.21-7.58-5.09-14.19-9.15-6.21-18.3-11.02-28.79-15.14-19.61-7.72-39.33-11.55-58.55-11.37v-1s0,1,0,1c-23.55.21-41.5,6.29-52.4,11.35-22.51,10.46-18.74,31.07-16.04,39.5Z"/></g></g></g></g><g><path class="cls-10" d="m193.11,214.15s65.88,58.3,114.01,38.99c-31.09,28.37-80.6,39.65-85.92,52.46-5.32,12.81-28.09-91.44-28.09-91.44Z"/><path class="cls-5" d="m199.49,224.46c5.28,4.03,12.61,9.28,21.3,14.56,24.05,14.62,45.91,22.04,64.97,22.04,1.69,0,3.36-.06,5.01-.18-13.59,9.27-28.76,16.38-41.61,22.41-13.48,6.32-23.92,11.21-29.01,16.78-4.06-9.38-11.89-36.83-20.65-75.6m-6.39-10.31s20.21,92.53,27,92.53c.42,0,.78-.35,1.09-1.09,5.32-12.81,54.84-24.09,85.92-52.46-6.84,2.75-14.04,3.92-21.36,3.92-44.17,0-92.66-42.91-92.66-42.91h0Z"/></g><path class="cls-3" d="m240.44,262.81c-1.98-.98-3.57-.74-5.01.79l-3.49,3.6c-1.2,1.16-2.31,1.32-3.78.59l-3.42-1.69c-.43-.21-.97-.03-1.19.4l-1.09,2.19c-.2.4-.04.88.4,1.09l13.88,6.87c.43.21.97.03,1.19-.4l5.47-11.04c.21-.43.05-.92-.38-1.13l-2.59-1.28h0Zm-10.02-8.09c-.43-.21-1.02-.01-1.23.42l-2.89,5.83c-.23.47-.05,1,.42,1.23l2.95,1.46c1.33.66,3.35,1.29,5.02-.82,0,0,1.7-2.16,2.68-3.42.38-.49.21-1.15-.33-1.42l-6.63-3.28h0Z"/></svg>